# xmcd
#
# Track frame offsets: 
#        150
#        15494
#        35142
#        50076
#        65349
#        82899
#        96743
#        112455
#        124346
#        139011
#        141887
#
# Disc length: 2121 seconds
#
# Revision: 0
# Processed by: cddbd v1.5.2PL0 Copyright (c) Steve Scherf et al.
# Submitted via: ExactAudioCopyFreeDBPlugin 1.0
#
DISCID=a808470b
DTITLE=Lyfe Jennings - Tree of Lyfe
DYEAR=2015
DGENRE=R&B
TTITLE0=I Love You
TTITLE1=She Don't Wanna
TTITLE2=#Hashtag
TTITLE3=We're Not The Same (feat. Algebra Blessett)
TTITLE4=Talkin About Love (feat. Demetria McKinney)
TTITLE5=Right Now
TTITLE6=Pretty Is
TTITLE7=People
TTITLE8=Gods
TTITLE9=2500 Mornings (Interlude)
TTITLE10=Always
EXTD=
EXTT0=
EXTT1=
EXTT2=
EXTT3=
EXTT4=
EXTT5=
EXTT6=
EXTT7=
EXTT8=
EXTT9=
EXTT10=
PLAYORDER=
